<svg width="58" height="133" viewBox="0 0 58 133" fill="none" xmlns="http://www.w3.org/2000/svg">
<g id="Group">
<path id="Vector" d="M29 132.047C25.0858 132.047 21.288 131.278 17.7112 129.762C14.2575 128.297 11.1565 126.201 8.4938 123.532C5.83114 120.862 3.74043 117.753 2.2798 114.291C0.767061 110.706 0 106.897 0 102.973V75.1813C0 72.0945 0.603359 69.0988 1.79337 66.2779C2.94263 63.5542 4.587 61.1084 6.68172 59.0084C8.77644 56.9083 11.2159 55.2597 13.9327 54.1075C16.7464 52.9145 19.7345 52.3096 22.8134 52.3096H35.1859C38.2649 52.3096 41.2529 52.9145 44.0666 54.1075C46.7834 55.2597 49.2229 56.9083 51.3176 59.0084C53.4123 61.1084 55.0567 63.5542 56.206 66.2779C57.396 69.0988 57.9993 72.0945 57.9993 75.1813V102.973C57.9993 106.897 57.2323 110.705 55.7195 114.291C54.2589 117.753 52.1682 120.862 49.5055 123.532C46.8429 126.201 43.7419 128.297 40.2881 129.762C36.712 131.278 32.9142 132.047 29 132.047ZM22.8141 55.9624C12.2436 55.9624 3.64421 64.5838 3.64421 75.1813V102.973C3.64421 116.99 15.0185 128.393 28.9993 128.393C42.9802 128.393 54.3545 116.99 54.3545 102.973V75.1813C54.3545 64.5838 45.7551 55.9624 35.1846 55.9624H22.8141Z" fill="#020202"/>
<path id="Vector_2" d="M30.8219 54.1357H27.1777V63.1905H30.8219V54.1357Z" fill="#020202"/>
<path id="Vector_3" d="M29.5237 62.3696H28.476C26.0345 62.3696 24.0547 64.3545 24.0547 66.8022V77.8385C24.0547 80.2862 26.0345 82.2711 28.476 82.2711H29.5237C31.9652 82.2711 33.945 80.2862 33.945 77.8385V66.8022C33.945 64.3545 31.9652 62.3696 29.5237 62.3696Z" fill="#020202"/>
<path id="Vector_4" d="M29.0001 49.6254C27.9939 49.6254 27.178 48.8074 27.178 47.7986V42.0269C27.178 39.464 28.1723 37.0557 29.9777 35.2457C31.7831 33.4357 34.1852 32.4389 36.7416 32.4389C44.6574 32.4389 51.0973 25.9826 51.0973 18.0466C51.0973 10.1105 44.6574 3.65419 36.7416 3.65419C32.0544 3.65419 28.2418 7.4772 28.2418 12.1757C28.2418 14.5056 27.3377 16.6954 25.696 18.3413C24.0543 19.9872 21.8701 20.8936 19.5462 20.8936C17.2223 20.8936 15.038 19.9872 13.3963 18.3413C11.7546 16.6954 10.8506 14.5062 10.8506 12.1757C10.8506 11.1669 11.6664 10.349 12.6727 10.349C13.679 10.349 14.4948 11.1669 14.4948 12.1757C14.4948 14.9678 16.7606 17.2394 19.5455 17.2394C22.3304 17.2394 24.5962 14.9678 24.5962 12.1757C24.5962 8.92146 25.8591 5.86346 28.1516 3.56443C30.4454 1.26607 33.4956 0 36.7416 0C39.1724 0 41.531 0.476954 43.7514 1.41747C45.8955 2.32582 47.8205 3.62606 49.4729 5.28267C51.1253 6.93929 52.4222 8.86854 53.3283 11.0189C54.2664 13.2449 54.7421 15.6095 54.7421 18.0466C54.7421 20.4836 54.2664 22.8483 53.3283 25.0743C52.4222 27.2239 51.1247 29.1538 49.4729 30.8105C47.8205 32.4671 45.8962 33.7673 43.7514 34.6757C41.531 35.6162 39.1724 36.0931 36.7416 36.0931C33.4776 36.0931 30.8222 38.7552 30.8222 42.0276V47.7993C30.8222 48.8074 30.0064 49.6254 29.0001 49.6254Z" fill="#020202"/>
</g>
</svg>
